<?xml version="1.0" encoding="utf-8"?>
<!-- Generator: Adobe Illustrator 26.4.1, SVG Export Plug-In . SVG Version: 6.00 Build 0)  -->
<svg version="1.1" id="Capa_1" xmlns="http://www.w3.org/2000/svg" xmlns:xlink="http://www.w3.org/1999/xlink" x="0px" y="0px"
	 viewBox="0 0 207.8 192.2" style="enable-background:new 0 0 207.8 192.2;" xml:space="preserve">
<style type="text/css">
	.st0{fill:#FEFEFE;}
	.st1{fill:#F0F8FF;}
	.st2{enable-background:new    ;}
</style>
<path class="st0" d="M203.7,192.2l0.4-0.4C204.2,192.1,204,192.2,203.7,192.2z"/>
<g>
	<path class="st1" d="M105.4,9.8c-0.8,0.1-1.4-0.1-2.1-0.5c0.2-0.4-0.4-1.2,0.4-1.2C105,8,104.8,9.2,105.4,9.8z"/>
	<g>
		<path class="st1" d="M102,93.5H72.5c-1.8,0-2.5-0.4-2.5-2.1c0.1-13.7-0.1-27.2,0.1-40.8c0.2-14.3,5.4-26.9,16.5-37.4
			c3.5-3.4,7.7-5.9,12.5-7.5c1.9-0.7,3.6-0.7,5.6,0c7.3,2.5,12.7,6.9,17.2,12.4c7.8,9.5,11.8,20.3,11.9,32c0.2,13.8,0,27.6,0.1,41.4
			c0,1.5-0.6,2-2.2,1.9C121.8,93.4,111.9,93.5,102,93.5C102,93.5,102,93.5,102,93.5z M101.4,92.2h9.4c1,0,1.5-0.2,1.4-1.1
			c-0.1-2.1,0-4.1,0-6.3c0-0.5,0.2-1.1-0.7-1.1c-2.9,0-5.8,0-8.7,0.1c-0.1,0-0.3,0.5-0.4,0.7h-0.8c-0.2-1.3-1.3-0.8-2.1-0.8
			c-2.5,0-5.9-0.8-7.2,0.3c-1.6,1.4-0.3,4.5-0.5,6.8c-0.1,1.1,0.4,1.4,1.6,1.4C96.1,92.2,98.8,92.2,101.4,92.2L101.4,92.2
			L101.4,92.2z M101.5,65C98.7,65,95.9,65,93,64.9c-1.2,0-1.3,0.5-1.3,1.3v15.3c0,1,0.3,1.4,1.5,1.4c2.7-0.1,5.5-0.1,8.2-0.1h1
			c2.7,0,5.5,0,8.2,0.1c1.2,0,1.5-0.3,1.5-1.4V66.2c0-0.8-0.1-1.4-1.3-1.3c-2.8,0.1-5.6,0.2-8.5,0.2H101.5L101.5,65z M112.1,24.9
			l1.6-0.1c5.1,1.7,8.5,4.8,9.8,9.5c0.1,0.5,0,1.1,0.9,1.4c2.7,0.7,4.7,2.3,6.6,4.4c-1.9-12.8-14.1-30.5-27.8-33.4
			c-0.2,0.5,1.1,1.4,0.1,1.6c-0.8,0.2-1.8-0.5-1.6-1.5V6.4c-0.1,0.1-0.2,0.2-0.3,0.2c0.1,0.1,0.2,0.2,0.3,0.2
			C101,6,100.2,6.8,99.6,7c-4.6,1.5-8.5,3.9-12,7.1c-7.1,6.4-11.5,14.3-14.2,23c-0.3,0.9-0.9,1.8-0.3,3c1.5-1.8,3.1-3.4,5.4-4
			c1.4-0.4,1.8-1.1,2.1-2.2c1.2-4.4,4.5-7.2,9.1-8.9c0.6-0.2,1.3-0.4,2.3,0.1c4.5,2.1,7.6,4.9,8.8,9.4c0.1,0.5,0.3,0.9,1.1,0.9
			s1.2-0.2,1.4-0.9C104.2,29.8,107.7,27.1,112.1,24.9L112.1,24.9L112.1,24.9z M112.2,55.4c-0.1-2.3,0.2-5.1-0.2-7.9
			c-0.1-1-0.6-1.5-1.8-1.4c-1.9,0.1-3.9,0.2-5.8,0c-1.5-0.1-1.9,0.2-1.9,1.6c0.1,3.2,0,6.3,0,9.5c0,2.3-1.1,5.3,0.5,6.6
			c1.5,1.1,4.9,0.3,7.5,0.4h0.3c1.2,0.2,1.5-0.3,1.5-1.4C112.1,60.5,112.2,58.1,112.2,55.4L112.2,55.4L112.2,55.4z M101.5,55.1v-3
			c0-1.9,0.7-4.5-0.4-5.6c-1.3-1.3-4.2-0.2-6.4-0.5c-2.3-0.3-2.8,0.7-2.8,2.4c0,4.8,0,9.6-0.1,14.4c0,1.1,0.6,1.2,1.6,1.2
			c2.2,0,4.3-0.1,6.5,0c1.3,0.1,1.6-0.4,1.6-1.5C101.5,60.1,101.6,57.6,101.5,55.1C101.5,55.1,101.5,55.1,101.5,55.1z M122.7,55.2
			V52c0-1.8,0.7-4.3-0.4-5.4c-1.2-1.3-4.1-0.2-6.2-0.5c-1.8-0.2-2.3,0.6-2.3,1.9c-0.1,3.3-0.1,6.6-0.2,9.9c0,2-0.8,4.8,0.4,5.8
			c1.5,1.4,4.5,0.2,7,0.5c1.5,0.2,1.8-0.5,1.7-1.6C122.6,60.1,122.7,57.6,122.7,55.2z M81.3,54.9v2.8c0.1,2.1-1,4.8,0.4,6
			c1.5,1.3,4.6,0.2,7,0.4H89c1.1,0.2,1.4-0.3,1.4-1.2c0-4.7-0.1-9.5-0.1-14.3c0-1.8-0.6-3-3.1-2.6c-1.2,0.2-2.4,0.2-3.6,0
			c-1.8-0.2-2.4,0.2-2.3,2C81.5,50.3,81.3,52.7,81.3,54.9C81.3,54.9,81.3,54.9,81.3,54.9z M90.4,73.9v-2.8c0-2,0.8-4.8-0.4-5.8
			c-1.5-1.3-4.5-0.3-6.9-0.5h-0.3c-1.2-0.2-1.5,0.4-1.5,1.4v15.1c0,1.1,0.3,1.6,1.6,1.5c1.9-0.1,3.9-0.1,5.8,0
			c1.5,0.1,1.7-0.5,1.7-1.6C90.4,78.8,90.4,76.4,90.4,73.9C90.4,73.9,90.4,73.9,90.4,73.9z M80.5,55.1v-3.7c0-1.8,0.6-4-0.3-5
			c-1.2-1.1-3.8-0.2-5.8-0.5c-2.3-0.4-2.8,0.7-2.8,2.4c0,4.8,0,9.6-0.1,14.4c0,1.1,0.5,1.3,1.6,1.3c1.9-0.1,3.9-0.1,5.8,0
			c1.2,0.1,1.7-0.3,1.7-1.5C80.5,60.1,80.6,57.6,80.5,55.1C80.5,55.1,80.5,55.1,80.5,55.1z M123.5,55v3c0.1,2-1,4.7,0.4,5.8
			c1.6,1.2,4.6,0.2,7,0.4h0.3c0.9,0.1,1.3-0.2,1.3-1.1c0-5-0.1-9.9-0.1-14.9c0-1.7-0.8-2.4-2.8-2.1c-1.4,0.2-2.9,0.1-4.3,0
			c-1.3-0.1-1.8,0.2-1.8,1.5C123.6,50.1,123.5,52.5,123.5,55z M71.5,73.9v2.8c0.1,2-1,4.7,0.4,5.8c1.6,1.2,4.6,0.2,7,0.4
			c1.3,0.1,1.6-0.4,1.6-1.4V71.3c0-2.1,1-4.8-0.4-6c-1.6-1.3-4.6-0.2-7-0.4c-1.4-0.1-1.6,0.5-1.5,1.5C71.5,68.9,71.5,71.5,71.5,73.9
			L71.5,73.9z M132.5,73.8V71c-0.1-2,1-4.8-0.4-5.8c-1.5-1-4.5-0.2-6.7-0.4c-1.5-0.1-1.9,0.5-1.8,1.8c0.1,3.3,0,6.6,0,9.9
			c0,2.1-1,4.7,0.5,6c1.5,1.2,4.5,0.2,6.8,0.4c1.6,0.2,1.8-0.5,1.8-1.8C132.5,78.8,132.6,76.3,132.5,73.8L132.5,73.8L132.5,73.8z
			 M113.7,73.7v3c0.1,2-1,4.7,0.5,5.8c1.4,1,4.3,0.2,6.6,0.3c1.5,0.1,2.1-0.3,2.1-1.8c-0.1-3.3,0-6.6-0.1-9.9c0-2.1,1.1-4.9-0.5-6
			s-4.6-0.2-7-0.4c-1.2-0.1-1.5,0.3-1.5,1.4C113.7,68.7,113.7,71.2,113.7,73.7z M112.9,45c1.6-4.3,3.9-7.7,8.6-9.2
			c1.2-0.3,0.6-0.9,0.5-1.5c-1.1-3.7-3.8-6.3-7.6-7.9c-0.7-0.3-1.3-0.3-2.1,0c-3.9,1.7-6.6,4.3-7.7,8.1c-0.2,0.6-0.4,1.2,0.6,1.6
			C109.5,37.7,111.5,40.9,112.9,45L112.9,45L112.9,45z M91.2,44.8c1.2-3.4,2.8-6.5,6.3-8c2.3-1.1,2.2-2.1,1.4-3.8
			c-1.6-3.4-4.3-6.6-8.2-6.6s-6.6,3.2-8.2,6.6c-0.8,1.6-1,2.8,1.5,3.4c2.6,0.8,4.3,2.8,5.5,4.9C90.1,42.4,90.6,43.5,91.2,44.8
			L91.2,44.8z M113.7,87.8c0,3,1.4,4.4,4.2,4.4s4.4-1.5,4.8-4.7c0-2.6-1.5-3.9-4.4-3.9C115.2,83.7,113.7,85,113.7,87.8L113.7,87.8z
			 M90.4,88.2v-0.7c0-2.5-1.4-3.8-4.2-3.8c-3.2,0-4.8,1.4-4.8,4.4c0,2.8,1.5,4.1,4.6,4.1C89,92.3,90.4,90.9,90.4,88.2L90.4,88.2z
			 M80.5,88.2c0-3-1.4-4.4-4.3-4.4c-3.1,0-4.7,1.5-4.7,4.7c0,2.6,1.4,3.9,4.3,3.9C78.9,92.3,80.5,90.9,80.5,88.2L80.5,88.2
			L80.5,88.2z M132.5,88.2c0-3-1.4-4.4-4.2-4.4c-3.2,0-4.8,1.5-4.8,4.7c0,2.6,1.5,3.9,4.4,3.9C131,92.3,132.6,90.9,132.5,88.2
			L132.5,88.2L132.5,88.2z M101.6,41.2c0-1-0.1-2.1,0-3c0.1-1.4-0.6-1.4-1.7-1c-2.4,0.8-4.2,2.3-5.5,4.3c-0.7,1.1-2,2.4-1.4,3.5
			c0.6,1,2.5,0.4,3.8,0.4C101.5,45.3,101.5,45.3,101.6,41.2C101.6,41.2,101.6,41.2,101.6,41.2z M102.5,41.2c0,2.8,1.6,4.2,4.7,4.2
			h2.9c1,0,1.3-0.3,0.9-1.1c-1-2.5-2.4-4.7-5-6.2c-1-0.6-2.2-1.5-3.3-0.9c-0.9,0.4-0.3,1.7-0.3,2.5
			C102.4,40.1,102.5,40.6,102.5,41.2L102.5,41.2L102.5,41.2z M127.5,45.3c0.9,0,1.8-0.1,2.7,0c1.4,0.1,1.6-0.4,1.2-1.5
			c-1.1-2.5-2.7-4.7-5.4-6.1c-2.1-1.1-2.4-0.9-2.4,1.1v2.8C123.6,44.1,124.9,45.3,127.5,45.3C127.5,45.3,127.5,45.3,127.5,45.3z
			 M80.5,41.2v-3c0.1-1.1-0.3-1.4-1.5-0.9c-2.3,0.9-3.9,2.4-5.1,4.3c-2.2,3.4-2.1,3.7,2.2,3.7C79,45.3,80.5,44,80.5,41.2L80.5,41.2z
			 M122.7,40.9v-2.6c0.1-1.3-0.3-1.5-1.6-1c-2.5,1-4.1,2.7-5.4,4.7c-1.8,3-1.7,3.1,2.1,3.1C121.1,45.3,122.7,43.8,122.7,40.9
			L122.7,40.9L122.7,40.9z M81.4,40.9c0,2.9,1.6,4.3,4.8,4.3h2.2c1.1,0.1,1.2-0.5,0.9-1.1c-1-2.5-2.4-4.7-5-6.1
			c-0.8-0.5-1.7-1.2-2.6-0.8c-0.8,0.4-0.2,1.5-0.3,2.2V40.9L81.4,40.9L81.4,40.9z"/>
		<path class="st1" d="M101.5,82.6v-18h0.9v18H101.5z"/>
		<path class="st1" d="M101.4,92.2c0-2.6,0.1-5.3,0.2-7.8h0.8c0,2.6,0.1,5.3,0.2,7.8H101.4z"/>
		<path class="st1" d="M112.1,23.9c-0.7-1.1,0.9-2.5-0.4-3.5v-1.3c1.5,1.2,2.3,2.9,2,4.7L112.1,23.9L112.1,23.9z"/>
		<path class="st1" d="M111.6,19v1.3c-2.2,0.5-2.6,1.6-1,3.5c-1.9-0.4-3.4,0.1-5,0.9c-3.2,1.4-9.4,0.2-11.3-2.1
			c-0.5-0.5-0.8-1.4-0.4-2.2c-0.3-0.1-0.7-0.3-1-0.5c0.2-2.8,0.2-5.7,2.5-7.8c0.2,0.4,0.4,0.7,0.6,1.1c-0.6,1.2-1.7,2.2-1.2,3.6
			c-0.9,0.6-0.3,1.2,0,1.9c-0.5,2.9,3.1,2.9,4.1,4.8c0.4,0.8,2.1,0.8,3.3,0.8c1.3,0,2.5-0.5,3.7-0.9c0.8-0.3,1.4-0.8,1.8-1.4
			c0.5-0.7,1.1-1.4,1.5-2.2c0.5-0.9,0.6-1.9-0.9-2.2c0.3-0.3,0.6-0.6,1-0.9c0.7-1.9-0.8-3.1-1.8-4.4c0.2-0.3,0.4-0.6,0.6-0.9
			c1.9,1.4,2.7,3.3,3,5.4C111.3,17.5,111,18.3,111.6,19L111.6,19L111.6,19z"/>
		<path class="st1" d="M94.7,18.6c-0.3-0.6-0.9-1.2,0-1.9c4.2-0.7,4.4-3.1,3.3-5.4c0.7-0.4,1.1-0.9,0.9-1.6c0.3-0.3,0.6-0.6,0.9-0.9
			c0.2-0.3,0.1-0.9,0.8-0.8c0.7,0.2,0.2,0.8,0.4,1.2c-0.6,0.3-1,0.8-0.9,1.4c-0.8,1.2-1.3,2.3-0.1,3.5c0.9,0.9,2.5,0.6,3.4,0.2
			c1.4-0.5,0.8-2,0.6-3.1c0-0.2-0.1-0.5-0.2-0.6c0.8-0.1,1.5,0.1,1.9,0.9c-0.4,2.3,0.1,4,2.9,4.7c0.2,0,0.3,0.2,0.5,0.5
			c-0.3,0.3-0.6,0.6-1,0.9c-1.6-0.6-3.3-2.2-4.7,0.3c-0.5,0.9-0.5,2.5-1.9,2.2c-0.8-0.1-1.3-1.6-1.9-2.5c-0.1-0.1-0.2-0.4-0.3-0.6
			c-0.3-0.6-0.7-0.7-1.3-0.5C97,17.3,95.6,17.6,94.7,18.6L94.7,18.6L94.7,18.6z M102.2,18.3c0.5-0.9,1.5-1.4,0.9-2.2
			c-0.3-0.5-1.7-0.4-1.9,0C100.7,16.9,101.6,17.5,102.2,18.3L102.2,18.3z"/>
		<path class="st1" d="M105.8,11.6c-0.4-0.8-1.1-0.9-1.9-0.8c-1.2-0.4-2.4-0.4-3.7,0.1c-0.1-0.7,0.2-1.2,0.9-1.4h2.2
			c0.6,0.3,1.3,0.5,2.1,0.5c1,0.4,1.9,0.9,2.7,1.6c-0.2,0.3-0.4,0.6-0.6,0.9C106.9,12.1,106.5,11.4,105.8,11.6L105.8,11.6z"/>
		<path class="st1" d="M99,9.7c0.1,0.8-0.2,1.3-0.9,1.6c-0.2,0.2-0.4,0.2-0.6,0.5c-0.4-0.1-0.8-0.3-1.2-0.5
			C97.1,10.6,98,10.1,99,9.7L99,9.7z"/>
		<path class="st1" d="M95.4,12.1c0.3-0.2,0.6-0.5,0.9-0.8c0.4,0.1,0.8,0.3,1.2,0.5c-0.5,0.5-0.9,0.8-1.5,1.3
			C95.7,12.8,95.5,12.4,95.4,12.1C95.4,12.1,95.4,12.1,95.4,12.1z"/>
		<path class="st1" d="M92.9,19.9c0.3,0.1,0.6,0.3,1,0.5c0,0.7,0.3,1.9-0.7,1.6C92.2,21.9,92.7,20.6,92.9,19.9
			C92.9,19.9,92.9,19.9,92.9,19.9z"/>
		<path class="st1" d="M92.4,22.8c0.6-0.9,1.2-1.2,1.9-0.2C93.7,23.3,93,22.8,92.4,22.8z"/>
		<path class="st1" d="M117,31.5c0,1.9-1.8,3.4-3.9,3.3c-2.1,0-3.8-1.6-3.7-3.5c0.1-1.9,1.8-3.2,3.8-3.2S117,29.6,117,31.5L117,31.5
			z M116,31.4c-0.3-1.6-1.2-2.6-3-2.5c-1.7,0.1-2.7,1-2.7,2.5c0,1.5,1,2.6,2.9,2.6C114.9,34.1,115.8,33,116,31.4
			C116,31.4,116,31.4,116,31.4z"/>
		<path class="st1" d="M94.6,31.4c0,1.9-1.7,3.5-3.8,3.5s-3.7-1.4-3.8-3.2c-0.1-1.9,1.5-3.5,3.6-3.6C92.8,28,94.5,29.6,94.6,31.4
			C94.6,31.4,94.6,31.4,94.6,31.4z M90.7,34c1.9-0.1,2.9-1,2.9-2.6c0-1.6-1.2-2.6-2.9-2.5c-1.6,0-2.7,0.9-2.7,2.5
			C88,33.1,89,33.9,90.7,34L90.7,34z"/>
		<path class="st1" d="M105.9,23.4v-0.2c-0.4-0.9-2.8-0.9-1.9-2.2c0.8-1.1,1.9,0.6,3,0.7c0.2,0,0.4,0.1,0.6,0.2
			C107.3,22.7,106.7,23.1,105.9,23.4z"/>
		<g class="st2">
			<path class="st1" d="M4.7,108.2h11.5c1.5,0,2.7,0.2,3.6,0.5c1,0.3,1.8,0.9,2.5,1.6c0.7,0.7,1.2,1.5,1.6,2.5c0.4,1,0.6,2,0.6,3.1
				c0,2.2-0.7,4-2.1,5.4c-1.4,1.5-3.4,2.2-5.9,2.2h-3.7v4.7c0,0.6,0,1,0.1,1.1c0.1,0.2,0.2,0.4,0.4,0.5c0.2,0.1,0.5,0.2,1,0.2h1.1
				v3.5H4.7v-3.5h0.7c0.6,0,1.1-0.1,1.3-0.2c0.2-0.1,0.4-0.3,0.5-0.5c0.1-0.2,0.1-0.7,0.1-1.5V114c0-0.8,0-1.3-0.1-1.5
				c-0.1-0.2-0.2-0.4-0.4-0.5c-0.2-0.1-0.5-0.2-1-0.2H4.7V108.2z M12.7,112.4v7.2h1.9c1.1,0,2-0.1,2.5-0.4s1-0.7,1.3-1.3
				c0.3-0.6,0.5-1.2,0.5-2c0-1.2-0.4-2.1-1.2-2.8c-0.6-0.5-1.4-0.8-2.5-0.8H12.7z"/>
			<path class="st1" d="M31.8,108.2h13.4c0.9,0,1.8,0.1,2.8,0.3c1,0.2,2,0.6,2.8,1.2c0.8,0.6,1.5,1.4,1.9,2.3c0.5,0.9,0.7,2,0.7,3.2
				c0,1.9-0.6,3.5-1.8,4.7c-1.2,1.2-2.6,2-4.2,2.3l4.5,6.1l0.2,0.3c0.3,0.4,0.6,0.7,0.8,0.9c0.2,0.2,0.5,0.3,0.7,0.4
				c0.2,0.1,0.6,0.1,1,0.1h0.9v3.5h-7l-7-10.9h-1.8v5c0,0.9,0,1.4,0.1,1.7s0.2,0.4,0.4,0.5s0.5,0.2,1.1,0.2h1v3.5H31.8v-3.5h1
				c0.5,0,0.9-0.1,1.1-0.2c0.2-0.1,0.4-0.3,0.5-0.6c0.1-0.1,0.1-0.6,0.1-1.4v-14.3c0-0.6,0-1-0.1-1.2c-0.1-0.2-0.2-0.4-0.4-0.5
				c-0.3-0.1-0.5-0.2-0.9-0.2l-0.4,0h-0.8V108.2z M39.8,112.4v6.6H43c1.3,0,2.2-0.1,2.9-0.4c0.6-0.3,1.1-0.7,1.4-1.2
				c0.3-0.5,0.5-1.1,0.5-1.9c0-0.7-0.1-1.2-0.4-1.7c-0.3-0.5-0.7-0.8-1.3-1.1s-1.4-0.3-2.7-0.3H39.8z"/>
			<path class="st1" d="M62.9,108.2h18.2l2.5,8l-2.8,1.2c-0.5-1.3-1-2.4-1.7-3.2s-1.3-1.3-2.1-1.6c-0.8-0.3-1.7-0.4-2.7-0.4h-3.3
				v6.3H72c0.8,0,1.4-0.1,1.7-0.2c0.3-0.1,0.5-0.4,0.6-0.7c0.1-0.3,0.2-0.9,0.2-1.8v-1h2.8v10.7h-2.8v-1.1c0-0.7-0.1-1.3-0.2-1.6
				c-0.2-0.3-0.4-0.6-0.6-0.7c-0.3-0.1-0.8-0.2-1.7-0.2h-1v5.8c0,0.6,0,1,0.1,1.1c0.1,0.1,0.2,0.2,0.3,0.3c0.2,0.1,0.5,0.1,1,0.1
				h1.8c1.4,0,2.5-0.2,3.5-0.7c0.9-0.5,1.8-1.2,2.5-2.2c0.7-1,1.3-2.2,1.7-3.6l2.9,1.1l-2.9,9.4H62.9v-3.5h0.5
				c0.7,0,1.2-0.1,1.5-0.2s0.4-0.3,0.5-0.6c0.1-0.2,0.1-0.7,0.1-1.5v-13.8c0-0.8,0-1.2-0.1-1.5s-0.2-0.4-0.4-0.5s-0.6-0.2-1.1-0.2
				h-1V108.2z"/>
			<path class="st1" d="M92,108.2h9.9l3.8,15.4l3.9-15.4h10v3.5h-1.1c-0.6,0-1,0.1-1.2,0.4c-0.2,0.3-0.3,0.8-0.3,1.6v14.4
				c0,0.6,0,1,0.1,1.2c0.1,0.2,0.2,0.4,0.4,0.5c0.2,0.1,0.5,0.2,0.9,0.2h1.2v3.5h-10.5v-3.5h0.8c0.6,0,1-0.1,1.2-0.2
				c0.2-0.1,0.4-0.3,0.5-0.5c0.1-0.2,0.1-0.6,0.1-1.2v-15.6l-5.3,21h-3l-5.1-20.3v15.4c0,0.4,0.1,0.6,0.2,0.8
				c0.1,0.2,0.3,0.3,0.5,0.4c0.2,0.1,0.5,0.2,1,0.2h1v3.5H92v-3.5h0.9c0.6,0,0.9-0.1,1.1-0.2c0.2-0.1,0.4-0.3,0.5-0.5
				s0.1-0.7,0.1-1.4v-14.2c0-0.7,0-1.1-0.1-1.3c-0.1-0.3-0.2-0.5-0.4-0.6c-0.2-0.1-0.5-0.2-0.9-0.2H92V108.2z"/>
			<path class="st1" d="M128,108.2h10.6v3.5h-1c-0.6,0-0.9,0.1-1.1,0.2c-0.2,0.1-0.3,0.3-0.4,0.5c-0.1,0.2-0.1,0.7-0.1,1.4v14
				c0,0.8,0,1.3,0.1,1.5c0.1,0.2,0.2,0.4,0.4,0.5c0.2,0.1,0.5,0.2,1,0.2h1.2v3.5H128v-3.5h0.9c0.6,0,1-0.1,1.2-0.2
				c0.2-0.1,0.3-0.3,0.4-0.5c0.1-0.2,0.1-0.7,0.1-1.3V114c0-0.8,0-1.3-0.1-1.6c-0.1-0.2-0.2-0.4-0.4-0.6c-0.1-0.1-0.5-0.1-1.1-0.1
				h-1V108.2z"/>
			<path class="st1" d="M146.4,108.2H157v3.5h-1c-0.5,0-0.8,0.1-1,0.2c-0.2,0.1-0.4,0.3-0.4,0.6c-0.1,0.2-0.1,0.8-0.1,1.5v9.2
				c0,1.7,0.1,3,0.4,3.9c0.3,0.8,0.7,1.5,1.3,1.9c0.6,0.4,1.3,0.7,2.2,0.7s1.6-0.2,2.3-0.7s1.1-1.1,1.4-1.8c0.3-0.7,0.4-2,0.4-3.7
				v-10.2c0-0.4,0-0.7-0.1-0.9c-0.1-0.2-0.3-0.4-0.5-0.5c-0.1-0.1-0.5-0.1-1.1-0.1h-0.8v-3.5h9v3.5h-0.7c-0.7,0-1.1,0-1.3,0.1
				c-0.2,0.1-0.4,0.4-0.5,0.6c-0.1,0.2-0.1,0.7-0.1,1.5v10c0,1.8-0.2,3.4-0.7,4.6c-0.6,1.7-1.6,3-3,4c-1.4,0.9-3,1.4-4.9,1.4
				c-1.3,0-2.5-0.2-3.6-0.7c-1.1-0.5-2-1.2-2.8-2.1s-1.4-1.8-1.7-2.8c-0.3-1-0.5-2.5-0.5-4.4v-9.8c0-0.9,0-1.5-0.1-1.7
				c-0.1-0.3-0.2-0.5-0.4-0.6s-0.6-0.2-1.1-0.2h-1V108.2z"/>
			<path class="st1" d="M176.8,108.2h9.9l3.8,15.4l3.9-15.4h10v3.5h-1.1c-0.6,0-1,0.1-1.2,0.4c-0.2,0.3-0.3,0.8-0.3,1.6v14.4
				c0,0.6,0,1,0.1,1.2c0.1,0.2,0.2,0.4,0.4,0.5c0.2,0.1,0.5,0.2,0.9,0.2h1.2v3.5h-10.5v-3.5h0.8c0.6,0,1-0.1,1.2-0.2
				c0.2-0.1,0.4-0.3,0.5-0.5c0.1-0.2,0.1-0.6,0.1-1.2v-15.6l-5.3,21h-3l-5.1-20.3v15.4c0,0.4,0.1,0.6,0.2,0.8
				c0.1,0.2,0.3,0.3,0.5,0.4c0.2,0.1,0.5,0.2,1,0.2h1v3.5h-8.9v-3.5h0.9c0.6,0,0.9-0.1,1.1-0.2s0.4-0.3,0.5-0.5s0.1-0.7,0.1-1.4
				v-14.2c0-0.7,0-1.1-0.1-1.3c-0.1-0.3-0.2-0.5-0.4-0.6c-0.2-0.1-0.5-0.2-0.9-0.2h-1.2V108.2z"/>
		</g>
		<g class="st2">
			<path class="st1" d="M53.8,153h8v2.6h-0.7c-0.4,0-0.7,0-0.8,0.1c-0.1,0.1-0.3,0.2-0.3,0.4s-0.1,0.6-0.1,1.2v3.3h5.9v-3.6
				c0-0.4,0-0.7-0.1-0.9c-0.1-0.2-0.2-0.4-0.3-0.4c-0.1-0.1-0.5-0.1-1-0.1h-0.6V153h8v2.6h-0.7c-0.5,0-0.8,0-0.9,0.1
				c-0.1,0.1-0.3,0.2-0.3,0.4s-0.1,0.6-0.1,1.2v10.3c0,0.6,0,1,0.1,1.2c0.1,0.2,0.2,0.3,0.3,0.4c0.2,0.1,0.5,0.1,1,0.1h0.5v2.6h-8
				v-2.6h0.5c0.5,0,0.8,0,1-0.1c0.2-0.1,0.3-0.2,0.4-0.4s0.1-0.6,0.1-1.2v-4h-5.9v4c0,0.6,0,1,0.1,1.2c0.1,0.2,0.2,0.4,0.4,0.4
				c0.2,0.1,0.5,0.1,1,0.1h0.5v2.6h-8v-2.6h0.5c0.5,0,0.8,0,1-0.1s0.3-0.2,0.4-0.4c0.1-0.2,0.1-0.5,0.1-1.1v-10.3
				c0-0.6,0-1.1-0.1-1.3s-0.2-0.3-0.3-0.4c-0.1-0.1-0.4-0.1-0.8-0.1h-0.7V153z"/>
			<path class="st1" d="M84.2,152.7c2.6,0,4.7,0.9,6.3,2.8s2.4,4.2,2.4,7.1c0,1.9-0.4,3.7-1.1,5.1s-1.7,2.7-3,3.5
				c-1.3,0.8-2.9,1.2-4.7,1.2c-2.4,0-4.4-0.8-5.9-2.3c-1.9-1.9-2.8-4.3-2.8-7.5c0-2.9,0.8-5.3,2.4-7.1S81.6,152.7,84.2,152.7z
				 M84.3,155.7c-1.2,0-2.2,0.5-3,1.6c-0.9,1.4-1.4,3.1-1.4,5.3s0.4,3.9,1.3,5.1c0.7,1.1,1.7,1.6,2.9,1.6c1.2,0,2.2-0.5,2.9-1.6
				c0.9-1.3,1.3-3,1.3-5.1c0-1.5-0.2-2.8-0.6-3.8c-0.4-1-0.9-1.8-1.5-2.3C85.7,155.9,85,155.7,84.3,155.7z"/>
			<path class="st1" d="M97.7,152.4h1.5l0.2,0.6h9.2l0.2-0.6h1.6l2,6.7l-2.2,0.9c-0.5-1.1-0.8-1.8-1-2.2c-0.4-0.7-0.9-1.2-1.4-1.6
				c-0.4-0.3-0.8-0.4-1.2-0.4c-0.2,0-0.3,0.1-0.4,0.2c-0.1,0.1-0.1,0.3-0.1,0.7v10.9c0,0.6,0,1,0.1,1.2c0,0.2,0.1,0.3,0.2,0.4
				c0.1,0.1,0.2,0.2,0.4,0.2s0.6,0,1.3,0v2.6h-8v-2.6h0.5c0.5,0,0.9,0,1-0.1c0.1-0.1,0.3-0.2,0.3-0.4c0.1-0.2,0.1-0.6,0.1-1.2v-11.2
				c0-0.3,0-0.5-0.1-0.6c-0.1-0.1-0.2-0.1-0.4-0.1c-0.4,0-0.9,0.2-1.4,0.5c-0.5,0.4-0.9,0.9-1.3,1.5c-0.2,0.3-0.5,1-1,2.1l-2.1-0.9
				L97.7,152.4z"/>
			<path class="st1" d="M115.3,153h13.6l1.9,6l-2.1,0.9c-0.4-1-0.8-1.8-1.3-2.4c-0.5-0.6-1-1-1.6-1.2s-1.3-0.3-2-0.3h-2.5v4.7h0.8
				c0.6,0,1-0.1,1.2-0.2c0.2-0.1,0.4-0.3,0.5-0.5s0.1-0.7,0.1-1.3v-0.7h2.1v8H124v-0.8c0-0.6-0.1-1-0.2-1.2
				c-0.1-0.3-0.3-0.4-0.5-0.5c-0.2-0.1-0.6-0.1-1.3-0.1h-0.7v4.4c0,0.5,0,0.7,0.1,0.8s0.1,0.2,0.2,0.2s0.4,0.1,0.7,0.1h1.4
				c1,0,1.9-0.2,2.6-0.5c0.7-0.3,1.3-0.9,1.9-1.7s1-1.7,1.3-2.7l2.1,0.9l-2.1,7.1h-14.1v-2.6h0.4c0.5,0,0.9,0,1.1-0.1
				s0.3-0.2,0.4-0.5c0-0.1,0.1-0.5,0.1-1.2v-10.3c0-0.6,0-0.9-0.1-1.1c-0.1-0.2-0.2-0.3-0.3-0.4c-0.1-0.1-0.4-0.1-0.8-0.1h-0.7V153z
				"/>
			<path class="st1" d="M134.5,153h8v2.6h-0.7c-0.4,0-0.6,0-0.7,0.1c-0.2,0.1-0.3,0.2-0.4,0.4c-0.1,0.2-0.1,0.5-0.1,0.9v10.9
				c0,0.4,0,0.7,0.1,0.8s0.1,0.2,0.2,0.2c0.1,0.1,0.3,0.1,0.6,0.1c1,0,1.9-0.2,2.5-0.5c0.6-0.3,1.2-0.8,1.7-1.5
				c0.5-0.7,0.9-1.7,1.3-2.9l2.2,0.9l-2.2,7h-12.5v-2.6h0.8c0.3,0,0.6,0,0.7-0.1c0.2-0.1,0.3-0.2,0.4-0.4s0.1-0.5,0.1-0.9v-10.8
				c0-0.5,0-0.8-0.1-1s-0.2-0.3-0.3-0.4c-0.1-0.1-0.4-0.1-0.7-0.1h-0.9V153z"/>
		</g>
	</g>
</g>
</svg>
